<?xml version="1.0" encoding="utf-8"?>
<!-- Generator: Adobe Illustrator 15.1.0, SVG Export Plug-In . SVG Version: 6.00 Build 0)  -->
<!DOCTYPE svg PUBLIC "-//W3C//DTD SVG 1.1//EN" "http://www.w3.org/Graphics/SVG/1.1/DTD/svg11.dtd">
<svg version="1.1" id="Warstwa_1" xmlns="http://www.w3.org/2000/svg" xmlns:xlink="http://www.w3.org/1999/xlink" x="0px" y="0px"
	 width="546.28px" height="338px" viewBox="0 0 546.28 338" enable-background="new 0 0 546.28 338" xml:space="preserve">
<g>
	<linearGradient id="SVGID_1_" gradientUnits="userSpaceOnUse" x1="97.6914" y1="177.6182" x2="97.6914" y2="294.1572">
		<stop  offset="0" style="stop-color:#39A8E0"/>
		<stop  offset="1" style="stop-color:#302D7E"/>
	</linearGradient>
	<path fill="url(#SVGID_1_)" d="M103.833,204.975c1.829-2.721,3.614-5.414,5.437-8.066c4.4-6.414,10.133-11.393,16.604-15.596
		c0.833-0.548,1.485-1.363,2.223-2.052c2.068-1.927,4.078-2.153,6.503-0.706c5.561,3.345,8.676,8.211,9.752,14.643
		c2.174,13.079,0.414,25.749-3.723,38.185c-3.165,9.466-6.463,18.885-9.572,28.366c-1.568,4.781-2.516,9.724-2.569,14.782
		c-0.017,1.954,0.312,3.928,0.702,5.853c0.461,2.239,2.066,3.17,4.826,2.413c3.84-1.061,6.751-3.602,8.916-6.759
		c2.229-3.227,4.184-6.691,5.965-10.198c3.896-7.639,6.525-15.781,8.924-23.994c0.238-0.824,0.682-1.595,1.028-2.376
		c0.224,0.027,0.438,0.055,0.649,0.077c0.037,0.567,0.217,1.177,0.074,1.696c-1.304,5.354-2.563,10.73-4.066,16.02
		c-1.715,6.088-3.38,12.193-6.383,17.818c-2.598,4.836-5.557,9.418-9.506,13.294c-2.688,2.626-5.721,4.813-9.414,5.53
		c-2.506,0.498-5.182,0.294-7.561-0.919c-5.268-2.668-9.07-6.812-12.073-11.864c-4.067-6.882-4.202-14.363-3.534-21.959
		c0.893-10.201,3.656-20.012,6.527-29.789c3.625-12.348,7.23-24.696,10.829-37.045c0.192-0.659,0.254-1.352,0.411-2.268
		c-3.841,1.493-6.967,3.666-9.016,6.823c-4.291,6.625-8.26,13.444-12.313,20.227c-2.337,3.923-4.205,8.039-5.631,12.407
		c-2.421,7.395-5.699,14.403-10.383,20.686c-0.447,0.61-0.667,1.429-1.209,1.927c-0.638,0.617-1.613,1.479-2.25,1.354
		c-0.875-0.196-1.667-1.149-2.277-1.938c-0.673-0.854-1.029-1.934-1.653-2.827c-1.386-1.959-1.505-4.257-1.782-6.484
		c-1.185-9.781,1.199-19.145,3.479-28.498c1.38-5.707,3.104-11.329,4.672-16.987c0.13-0.465,0.233-0.938,0.354-1.406
		c-0.132-0.104-0.264-0.201-0.403-0.303c-2.322,2.521-4.904,4.853-6.902,7.591c-4.017,5.529-7.748,11.253-11.523,16.954
		c-0.652,0.984-1.095,2.181-1.324,3.343c-1.537,7.528-3.938,14.781-6.929,21.844c-1.519,3.581-3.704,6.744-6.526,9.436
		c-3.074,2.938-5.308,3.26-8.799,0.846c-2.103-1.443-4.01-3.229-5.873-5.003c-1.813-1.726-2.187-4.057-2.104-6.453
		c0.22-6.894,1.462-13.594,3.8-20.074c2.996-8.293,6.08-16.554,9.092-24.832c1.026-2.832,1.946-5.704,2.917-8.564
		c-0.138-0.129-0.269-0.269-0.405-0.402c-1.223,0.72-2.572,1.287-3.641,2.188c-3.486,2.922-6.238,6.366-6.796,11.088
		c-0.093,0.799,0.177,1.673-0.093,2.382c-0.398,1.092-1.088,2.123-2.514,2.045c-1.283-0.069-3.047-1.673-3.013-2.993
		c0.049-1.66,0.054-3.444,0.673-4.918c2.857-6.847,7.287-12.457,13.594-16.499c1.871-1.2,3.607-2.613,5.492-3.806
		c2.385-1.493,4.887-1.53,7.043,0.358c2.039,1.784,4.013,3.717,5.697,5.834c2.253,2.805,2.404,6.324,2.287,9.704
		c-0.158,4.55-0.676,9.085-1.05,13.809c0.739-1.003,1.455-1.921,2.093-2.879c3.677-5.446,7.995-10.314,12.727-14.857
		c2.361-2.275,4.555-4.732,6.872-7.065c1.876-1.892,3.948-1.953,6.095-0.321c4.612,3.507,6.326,8.383,6.531,13.938
		C103.898,200.099,103.833,202.483,103.833,204.975"/>
	<linearGradient id="SVGID_2_" gradientUnits="userSpaceOnUse" x1="187.9614" y1="97.9053" x2="187.9614" y2="280.043">
		<stop  offset="0" style="stop-color:#EA5174"/>
		<stop  offset="1" style="stop-color:#9D1544"/>
	</linearGradient>
	<path fill="url(#SVGID_2_)" d="M173.354,239.76c-0.084,1.078-0.254,2.138-0.219,3.192c0.075,2.528,0.271,5.054,0.371,7.577
		c0.092,2.575-1.236,4.51-3.243,5.847c-0.645,0.433-1.988,0.29-2.792-0.081c-2.298-1.061-3.666-3.137-4.832-5.298
		c-3.269-6.078-6.262-12.334-7.441-19.162c-0.936-5.368-1.443-10.847-1.565-16.296c-0.308-13.566,0.796-27.044,3.704-40.33
		c0.248-1.152-0.143-1.494-1.143-1.784c-7.537-2.183-13.537-6.51-17.896-13.046c-1.006-1.496-1.767-3.183-2.498-4.835
		c-0.609-1.383-0.107-3.024,1.197-3.714c0.48-0.259,1.472-0.163,1.888,0.175c0.891,0.717,1.706,1.612,2.28,2.596
		c3.667,6.184,8.798,10.504,15.695,12.679c1.862,0.589,1.9,0.569,2.357-1.249c3.164-13.032,7.221-25.726,13.273-37.757
		c4.921-9.779,11.357-18.295,19.594-25.48c4.089-3.578,8.859-5.505,14.219-4.711c4.389,0.645,7.881,3.156,10.391,6.962
		c2.559,3.839,2.799,8.164,2.793,12.534c-0.01,6.566-0.936,13.018-2.813,19.327c-1.389,4.671-3.942,8.749-6.551,12.802
		c-5.068,7.887-12.254,13.402-20.27,17.935c-1.697,0.954-2.779,2.011-3.293,3.974c-2.588,9.898-5.332,19.768-8.01,29.636
		c-0.142,0.534-0.229,1.075-0.132,1.75c0.275-0.297,0.549-0.595,0.821-0.898c3.393-3.744,6.697-7.587,10.221-11.207
		c1.896-1.939,4.082-3.583,6.858-4.312c1.495-0.393,2.625-0.162,3.804,0.756c4.049,3.156,4.809,7.383,3.996,12.127
		c-1.113,6.458-4.236,11.877-8.671,16.586c-1.333,1.43-2.833,2.708-4.208,4c2.741,3.666,5.405,7.282,8.148,10.855
		c5.435,7.097,9.005,15.248,13.145,23.071c1.685,3.173,3.454,6.324,5.418,9.325c1.623,2.507,4.316,3.066,7.082,1.893
		c5.002-2.116,7.813-6.268,9.891-10.957c2.217-4.995,3.137-10.348,3.968-15.7c0.052-0.309-0.007-0.663,0.145-0.892
		c0.251-0.374,0.626-0.654,0.95-0.975c0.137,0.399,0.443,0.818,0.389,1.185c-0.91,5.5-1.816,10.978-2.811,16.463
		c-0.759,4.147-2.038,8.132-4.219,11.796c-2.264,3.813-4.873,7.396-8.441,10.054c-6.107,4.524-12.625,5.126-19.494,1.581
		c-9.069-4.688-15.915-11.701-21.459-20.152c-3.668-5.597-7.493-11.077-9.939-17.358c-0.064-0.17-0.199-0.322-0.299-0.481H173.354z
		 M189.264,162.531c0.771-0.415,1.227-0.602,1.615-0.868c2.088-1.435,4.217-2.815,6.211-4.353
		c7.082-5.515,11.712-12.666,13.931-21.334c1.664-6.458,2.223-12.965,0.494-19.511c-0.251-0.929-0.652-1.811-0.981-2.718
		c-0.188-0.032-0.391-0.061-0.594-0.093c-0.926,1.283-2.049,2.479-2.73,3.873c-2.088,4.338-3.991,8.763-5.982,13.132
		c-4.039,8.854-7.65,17.874-10.496,27.191C190.299,159.284,189.832,160.718,189.264,162.531 M178.563,209.865
		c2.648,1.853,4.939,3.408,7.173,5.045c0.67,0.508,1.147,0.5,1.703-0.047c1.189-1.173,2.477-2.268,3.561-3.52
		c4.043-4.75,6.484-10.103,6.066-16.507c-0.17-2.556-1.165-3.021-3.598-1.729c-0.184,0.09-0.362,0.204-0.512,0.329
		c-2.76,2.59-5.717,5.01-8.211,7.837C182.404,203.946,180.553,207.053,178.563,209.865"/>
	<g>
		<g>
			
				<linearGradient id="SVGID_3_" gradientUnits="userSpaceOnUse" x1="456.875" y1="389.0342" x2="480.1885" y2="389.0342" gradientTransform="matrix(0.9787 0.2054 -0.2054 0.9787 -233.0327 -322.772)">
				<stop  offset="0" style="stop-color:#94C123"/>
				<stop  offset="1" style="stop-color:#448132"/>
			</linearGradient>
			<path fill-rule="evenodd" clip-rule="evenodd" fill="url(#SVGID_3_)" d="M154.934,166.55c-6.491-1.095-16.434-5.8-21.559-10.05
				c-0.137-4.449,5.385-7.706,6.941-13.799C148.365,149.278,146.135,161.542,154.934,166.55z"/>
			
				<linearGradient id="SVGID_4_" gradientUnits="userSpaceOnUse" x1="414.6377" y1="391.8164" x2="446.7969" y2="391.8164" gradientTransform="matrix(0.9787 0.2054 -0.2054 0.9787 -233.0327 -322.772)">
				<stop  offset="0" style="stop-color:#94C123"/>
				<stop  offset="1" style="stop-color:#448132"/>
			</linearGradient>
			<path fill-rule="evenodd" clip-rule="evenodd" fill="url(#SVGID_4_)" d="M93.15,141.785c8.6,3.299,19.85,3.09,19.85,3.09
				s5.657,6.213,10.5,8.875C111.516,160.55,98.25,148.667,93.15,141.785z"/>
			
				<linearGradient id="SVGID_5_" gradientUnits="userSpaceOnUse" x1="441.0684" y1="379.3662" x2="458.417" y2="379.3662" gradientTransform="matrix(0.9787 0.2054 -0.2054 0.9787 -233.0327 -322.772)">
				<stop  offset="0" style="stop-color:#94C123"/>
				<stop  offset="1" style="stop-color:#448132"/>
			</linearGradient>
			<path fill-rule="evenodd" clip-rule="evenodd" fill="url(#SVGID_5_)" d="M130.625,154.875c-3.5-2.334-7.756-5.534-11-9.125
				c-0.875-7,11.75-9.375,16.089-17.18C143.895,142.42,131.875,146.875,130.625,154.875z"/>
			
				<linearGradient id="SVGID_6_" gradientUnits="userSpaceOnUse" x1="426.4268" y1="365.9082" x2="451.4941" y2="365.9082" gradientTransform="matrix(0.9787 0.2054 -0.2054 0.9787 -233.0327 -322.772)">
				<stop  offset="0" style="stop-color:#94C123"/>
				<stop  offset="1" style="stop-color:#448132"/>
			</linearGradient>
			<path fill-rule="evenodd" clip-rule="evenodd" fill="url(#SVGID_6_)" d="M116.25,142.875c-3.375-3.5-6.154-7.314-8.52-12.574
				c-0.313-7.051,19.02-12.384,25.764-20.715C142.75,130,117.583,132.625,116.25,142.875z"/>
			
				<linearGradient id="SVGID_7_" gradientUnits="userSpaceOnUse" x1="390.7676" y1="372.9121" x2="431.166" y2="372.9121" gradientTransform="matrix(0.9787 0.2054 -0.2054 0.9787 -233.0327 -322.772)">
				<stop  offset="0" style="stop-color:#94C123"/>
				<stop  offset="1" style="stop-color:#448132"/>
			</linearGradient>
			<path fill-rule="evenodd" clip-rule="evenodd" fill="url(#SVGID_7_)" d="M110.125,141.375
				c-21.209-1.226-31.247-13.229-34.959-30.112c11.885,8.437,27.334,16.571,27.334,16.571S104,135.375,110.125,141.375z"/>
			
				<linearGradient id="SVGID_8_" gradientUnits="userSpaceOnUse" x1="418.9014" y1="343.7559" x2="447.3867" y2="343.7559" gradientTransform="matrix(0.9787 0.2054 -0.2054 0.9787 -233.0327 -322.772)">
				<stop  offset="0" style="stop-color:#94C123"/>
				<stop  offset="1" style="stop-color:#448132"/>
			</linearGradient>
			<path fill-rule="evenodd" clip-rule="evenodd" fill="url(#SVGID_8_)" d="M105.85,125.456
				c-10.797-26.022,19.254-33.382,30.922-45.218C141.917,115.167,108.084,114.917,105.85,125.456z"/>
			
				<linearGradient id="SVGID_9_" gradientUnits="userSpaceOnUse" x1="377.1846" y1="344.4551" x2="418.5947" y2="344.4551" gradientTransform="matrix(0.9787 0.2054 -0.2054 0.9787 -233.0327 -322.772)">
				<stop  offset="0" style="stop-color:#94C123"/>
				<stop  offset="1" style="stop-color:#448132"/>
			</linearGradient>
			<path fill-rule="evenodd" clip-rule="evenodd" fill="url(#SVGID_9_)" d="M101.138,122.995
				C72.244,107.602,64.149,97.484,70.125,69.15c6.354,17.374,24.564,24.646,29.191,43.568
				C100.036,115.689,100.667,119.787,101.138,122.995z"/>
			
				<linearGradient id="SVGID_10_" gradientUnits="userSpaceOnUse" x1="375.8154" y1="296.6641" x2="445.96" y2="296.6641" gradientTransform="matrix(0.9787 0.2054 -0.2054 0.9787 -233.0327 -322.772)">
				<stop  offset="0" style="stop-color:#EA5174"/>
				<stop  offset="1" style="stop-color:#9D1544"/>
			</linearGradient>
			<path fill-rule="evenodd" clip-rule="evenodd" fill="url(#SVGID_10_)" d="M80.852,75.305
				c-6.391-7.436-11.001-16.719-7.496-27.486C85.5,10.5,142.279,19.096,142.75,54.917c0.151,11.504-6.916,18.25-13.75,23.75
				c11.557-20.429-4.146-37.628-22.498-38.141C90.667,40.084,74.584,53.084,80.852,75.305z"/>
			
				<linearGradient id="SVGID_11_" gradientUnits="userSpaceOnUse" x1="442.6514" y1="398.8965" x2="468.5469" y2="398.8965" gradientTransform="matrix(0.9787 0.2054 -0.2054 0.9787 -233.0327 -322.772)">
				<stop  offset="0" style="stop-color:#94C123"/>
				<stop  offset="1" style="stop-color:#448132"/>
			</linearGradient>
			<path fill-rule="evenodd" clip-rule="evenodd" fill="url(#SVGID_11_)" d="M118.25,158.584c6.084,6.5,17.586,7.497,24.834,7.749
				c-11-5.499-17.084-9.916-17.084-9.916S123.01,159.076,118.25,158.584z"/>
			
				<linearGradient id="SVGID_12_" gradientUnits="userSpaceOnUse" x1="389.3887" y1="309.3867" x2="434.0127" y2="309.3867" gradientTransform="matrix(0.9787 0.2054 -0.2054 0.9787 -233.0327 -322.772)">
				<stop  offset="0" style="stop-color:#39A8E0"/>
				<stop  offset="1" style="stop-color:#302D7E"/>
			</linearGradient>
			<path fill-rule="evenodd" clip-rule="evenodd" fill="url(#SVGID_12_)" d="M123.25,82.084c2.916-11.584-2.68-22.251-15.023-24.289
				c-12.393-2.045-23.643,6.039-23.393,20.789c-6.667-17.75,6.588-33.556,24.116-31.83C125.834,48.417,133.416,68.75,123.25,82.084z
				"/>
		</g>
		<g>
			
				<linearGradient id="SVGID_13_" gradientUnits="userSpaceOnUse" x1="396.2646" y1="319.7559" x2="427.5166" y2="319.7559" gradientTransform="matrix(0.9787 0.2054 -0.2054 0.9787 -233.0327 -322.772)">
				<stop  offset="0" style="stop-color:#FFDE08"/>
				<stop  offset="1" style="stop-color:#D25421"/>
			</linearGradient>
			<path fill="url(#SVGID_13_)" d="M88.07,82.908c2.107-7.921,9.633-10.709,15.846-10.241c7.25,0.534,13.668,6.667,13.679,12.83
				c5.188-10.945-2.095-21.247-12.179-21.913C95.481,62.927,86.022,70.928,88.07,82.908z"/>
			<path fill="#E5352B" d="M88.086,82.983c-0.006-0.027-0.01-0.055-0.016-0.075c-0.008,0.027-0.012,0.055-0.018,0.082
				C88.059,82.983,88.07,82.977,88.086,82.983z"/>
		</g>
		<linearGradient id="SVGID_14_" gradientUnits="userSpaceOnUse" x1="92.7305" y1="92.7676" x2="112.6162" y2="92.7676">
			<stop  offset="0" style="stop-color:#39A8E0"/>
			<stop  offset="1" style="stop-color:#302D7E"/>
		</linearGradient>
		<path fill="url(#SVGID_14_)" d="M112.436,90.797c-0.486,2.345-2.538,4.361-5.277,7.306c-3.815,4.097-5.4,7.854-5.4,7.854
			s-1.238-4.699-4.712-9.518c-1.863-2.59-4.911-5.353-4.214-9.757c0.787-4.974,6.258-8.006,11.684-6.866
			C109.921,80.949,113.475,85.869,112.436,90.797z"/>
	</g>
	<g>
		<g>
			<path fill="#646F84" d="M319.528,184.191c0-2.161-0.085-3.855-0.17-5.551h3.263l0.17,3.348h0.127
				c1.144-1.949,3.051-3.771,6.483-3.771c2.754,0,4.872,1.695,5.763,4.11h0.084c0.636-1.187,1.483-2.034,2.331-2.67
				c1.229-0.932,2.542-1.44,4.491-1.44c2.755,0,6.78,1.779,6.78,8.898v12.034h-3.645v-11.568c0-3.982-1.482-6.313-4.449-6.313
				c-2.161,0-3.771,1.568-4.449,3.348c-0.169,0.551-0.297,1.187-0.297,1.864v12.67h-3.644v-12.288c0-3.263-1.44-5.594-4.28-5.594
				c-2.288,0-4.025,1.864-4.618,3.729c-0.212,0.508-0.297,1.186-0.297,1.821v12.331h-3.644V184.191z"/>
			<path fill="#646F84" d="M372.41,199.149v-12.204l-2.881,2.458v-2.924l2.881-2.457v-14.958h3.729v12.076l3.009-2.585v2.966
				l-3.009,2.585v15.043H372.41z"/>
			<path fill="#646F84" d="M418.428,188.726c0,7.585-5.297,10.89-10.213,10.89c-5.508,0-9.83-4.067-9.83-10.551
				c0-6.822,4.534-10.848,10.17-10.848C414.444,178.217,418.428,182.496,418.428,188.726z M402.198,188.938
				c0,4.491,2.542,7.882,6.187,7.882c3.56,0,6.229-3.348,6.229-7.967c0-3.475-1.737-7.839-6.144-7.839
				C404.105,181.014,402.198,185.081,402.198,188.938z"/>
			<path fill="#646F84" d="M458.174,169.064v24.788c0,1.822,0.085,3.898,0.17,5.297h-3.306l-0.169-3.56h-0.127
				c-1.102,2.288-3.56,4.025-6.907,4.025c-4.958,0-8.813-4.194-8.813-10.424c-0.043-6.822,4.237-10.975,9.195-10.975
				c3.178,0,5.254,1.483,6.187,3.094h0.084v-12.246H458.174z M454.487,186.988c0-0.466-0.042-1.102-0.169-1.568
				c-0.551-2.33-2.585-4.279-5.382-4.279c-3.855,0-6.144,3.39-6.144,7.882c0,4.152,2.076,7.585,6.059,7.585
				c2.501,0,4.789-1.695,5.467-4.449c0.127-0.509,0.169-1.018,0.169-1.61V186.988z"/>
			<path fill="#646F84" d="M483.132,178.641l4.449,12.119c0.509,1.355,1.017,2.966,1.356,4.194h0.084
				c0.382-1.229,0.806-2.796,1.313-4.279l4.068-12.034h3.94l-5.593,14.619c-2.67,7.034-4.492,10.593-7.034,12.839
				c-1.864,1.568-3.645,2.203-4.576,2.373l-0.933-3.094c0.933-0.296,2.161-0.89,3.263-1.821c1.018-0.806,2.246-2.246,3.136-4.153
				c0.17-0.381,0.297-0.678,0.297-0.89s-0.085-0.509-0.297-0.975l-7.542-18.898H483.132z"/>
			<path fill="#646F84" d="M319.44,215.591h6.878v13.573h0.091c0.684-1.185,1.412-2.277,2.141-3.37l6.924-10.203h8.563
				l-10.157,13.072l10.658,17.627h-8.062l-7.561-13.254l-2.597,3.233v10.021h-6.878V215.591z"/>
			<path fill="#646F84" d="M347.409,216.001c2.232-0.364,5.512-0.638,9.246-0.638c4.555,0,7.743,0.684,9.93,2.414
				c1.867,1.457,2.869,3.644,2.869,6.468c0,3.871-2.778,6.559-5.42,7.516v0.137c2.141,0.865,3.325,2.869,4.1,5.693
				c0.956,3.507,1.867,7.515,2.459,8.699h-7.105c-0.455-0.911-1.229-3.37-2.095-7.151c-0.865-3.871-2.187-4.873-5.056-4.919h-2.05
				v12.07h-6.878V216.001z M354.287,229.21h2.732c3.462,0,5.512-1.731,5.512-4.418c0-2.778-1.913-4.236-5.102-4.236
				c-1.685,0-2.642,0.091-3.143,0.228V229.21z"/>
			<path fill="#646F84" d="M381.981,238.41l-2.187,7.88h-7.15l9.337-30.699h9.109l9.565,30.699h-7.516l-2.368-7.88H381.981z
				 M389.77,233.218l-1.913-6.513c-0.546-1.822-1.093-4.1-1.548-5.922h-0.092c-0.455,1.822-0.91,4.146-1.411,5.922l-1.822,6.513
				H389.77z"/>
			<path fill="#646F84" d="M404.712,215.591h6.878v13.573h0.091c0.684-1.185,1.412-2.277,2.141-3.37l6.924-10.203h8.563
				l-10.157,13.072l10.658,17.627h-8.062l-7.561-13.254l-2.597,3.233v10.021h-6.878V215.591z"/>
			<path fill="#646F84" d="M459.281,230.622c0,10.111-6.059,16.169-15.077,16.169c-9.063,0-14.438-6.878-14.438-15.668
				c0-9.201,5.922-16.078,14.94-16.078C454.134,215.045,459.281,222.104,459.281,230.622z M437.1,230.986
				c0,6.058,2.823,10.294,7.47,10.294c4.691,0,7.378-4.464,7.378-10.431c0-5.557-2.596-10.294-7.378-10.294
				C439.832,220.556,437.1,225.02,437.1,230.986z M452.448,208.304l-5.557,5.603h-5.557l3.826-5.603H452.448z"/>
			<path fill="#646F84" d="M468.485,246.29l-7.287-30.699h7.424l2.323,12.617c0.683,3.689,1.32,7.651,1.821,10.749h0.092
				c0.501-3.325,1.229-7.015,2.004-10.841l2.596-12.525h7.379l2.46,12.936c0.683,3.599,1.184,6.878,1.64,10.294h0.091
				c0.455-3.416,1.139-7.015,1.776-10.704l2.505-12.525h7.061l-7.926,30.699h-7.516l-2.596-13.209
				c-0.592-3.097-1.094-5.967-1.458-9.474h-0.091c-0.547,3.462-1.048,6.377-1.776,9.474l-2.915,13.209H468.485z"/>
			<path fill="#646F84" d="M318.885,294.696v-2.94l3.758-3.649c9.04-8.604,13.18-13.179,13.18-18.516
				c0-3.594-1.688-6.916-6.971-6.916c-3.214,0-5.882,1.634-7.516,2.995l-1.525-3.377c2.396-2.015,5.937-3.594,9.967-3.594
				c7.624,0,10.837,5.228,10.837,10.293c0,6.535-4.738,11.817-12.199,19.006l-2.777,2.614v0.108h15.848v3.976H318.885z"/>
			<path fill="#646F84" d="M352.647,291.864c0-1.96,1.361-3.431,3.268-3.431s3.213,1.416,3.213,3.431
				c0,1.961-1.307,3.431-3.322,3.431C353.954,295.295,352.647,293.825,352.647,291.864z"/>
			<path fill="#646F84" d="M392.564,276.616c0,12.035-4.521,18.679-12.308,18.679c-6.916,0-11.654-6.48-11.763-18.188
				c0-11.927,5.173-18.407,12.361-18.407C388.262,258.699,392.564,265.343,392.564,276.616z M373.341,277.16
				c0,9.204,2.832,14.432,7.188,14.432c4.847,0,7.188-5.718,7.188-14.758c0-8.714-2.179-14.432-7.188-14.432
				C376.391,262.402,373.341,267.521,373.341,277.16z"/>
		</g>
		<rect x="293.237" y="179.088" fill="#646F84" width="2.953" height="115.68"/>
	</g>
</g>
</svg>
